<svg width="218" height="53" viewBox="0 0 218 53" fill="none" xmlns="http://www.w3.org/2000/svg">
<g clip-path="url(#clip0_120_382)">
<path d="M36.0653 39.6311C36.9396 39.6311 37.5859 40.3245 37.5859 41.1385C37.5859 41.2516 37.5251 41.3722 37.5251 41.4852C35.6547 49.8136 28.1882 52.9414 21.4136 52.9414C7.64388 52.9414 0.519531 42.0053 0.519531 28.5292C0.519531 15.0531 7.29413 4.10938 21.5885 4.10938C24.8579 4.10938 28.4163 5.20977 31.1003 7.63668C31.5108 7.98338 31.9138 8.21703 32.2712 8.21703C32.5601 8.21703 32.735 7.98338 32.735 7.52362V7.17692C32.735 6.37047 33.3737 5.66953 34.1948 5.55647H34.3089C35.1833 5.55647 35.9436 6.01623 35.9436 7.00357C36.0044 9.31742 36.1185 11.8046 36.3542 14.4124C36.5899 17.3669 37.1145 20.0275 37.4035 22.5674V22.8538C37.4035 23.6603 36.7039 24.2406 35.8828 24.3612H35.7687C34.9552 24.3612 34.2481 23.7809 34.134 22.9744C32.0355 10.1842 27.4202 7.35027 22.6377 7.35027C13.5897 7.35027 10.7308 16.8393 10.7308 28.5292C10.7308 40.219 14.4109 48.6077 23.8086 48.6077C28.5379 48.6077 32.1571 46.8139 34.6054 40.6788C34.8411 40.0984 35.3657 39.699 35.9512 39.6387H36.0653V39.6311Z" fill="#231F20"/>
<path d="M74.1812 46.9799V47.3266C73.9455 49.4671 71.6113 52.9416 66.6539 52.9416C64.2588 52.9416 62.4492 51.6679 61.4608 49.7007C61.2859 49.354 60.9361 49.1807 60.5864 49.1807C60.4115 49.1807 60.1758 49.241 60.0009 49.4143C57.5527 51.5548 54.2224 53.0019 50.3142 53.0019C46.4061 53.0019 41.502 51.1478 41.502 44.4399C41.502 33.4435 53.8194 32.117 59.4231 31.4763C60.0085 31.416 60.4191 30.9563 60.4191 30.3759V27.1953C60.4191 24.7684 59.4231 21.9873 55.6366 21.9873C52.4812 21.9873 51.9034 24.9418 51.3787 27.3084C50.9149 29.4489 48.9837 30.6096 47.06 30.6096C46.4746 30.6096 45.8359 30.4965 45.3112 30.2629C43.8514 29.6298 43.2127 28.2354 43.2127 26.7356C43.2127 25.7482 43.5016 24.7684 44.0339 23.9017C45.7294 21.1808 50.9225 18.7539 56.4045 18.7539C64.8063 18.7539 70.1818 23.3213 70.1818 30.4438H70.2427V43.6938C70.2427 45.5479 70.7065 45.774 71.2311 45.774C71.406 45.774 71.5809 45.7137 71.7557 45.6006C72.0447 45.4273 72.3944 45.3142 72.7518 45.3142C73.1624 45.3142 73.5653 45.4876 73.8619 45.8343C74.1508 46.2413 74.2116 46.6407 74.2116 46.9949L74.1812 46.9799ZM59.0049 46.4071C59.8793 45.9473 60.4039 44.96 60.4039 43.9802V35.4182C60.4039 34.8378 59.9401 34.3178 59.3546 34.3178H59.2406C55.5073 34.5514 51.1886 35.7649 51.1886 42.0733C51.1886 43.234 51.2495 47.2211 55.743 47.2211C57.1421 47.2211 58.1913 46.9347 59.0125 46.4071H59.0049Z" fill="#231F20"/>
<path d="M89.7003 52.938H89.5862C87.7766 52.8249 85.967 52.8249 84.0966 52.8249C82.2262 52.8249 80.4774 52.8249 78.607 52.938H78.4929C77.5577 52.938 76.7441 52.124 76.7441 51.1442C76.7441 50.9106 76.805 50.6241 76.919 50.3905C77.0939 50.0438 77.3828 49.7574 77.7934 49.584C78.6146 49.1771 79.1924 48.3103 79.1924 47.3305V8.2136C79.1924 7.00015 78.607 6.3595 77.7326 6.0128C77.4437 5.83945 77.2079 5.60581 77.0331 5.3797C76.8582 5.09329 76.7441 4.74659 76.7441 4.39235C76.7441 3.46531 77.5045 2.65885 78.4929 2.65885H79.0175C81.291 2.65885 83.9217 1.7318 86.1951 0.344999C86.484 0.171648 86.8338 0.0585938 87.1912 0.0585938C88.1264 0.0585938 89.0008 0.812291 89.0008 1.91269V47.3305C89.0008 48.3706 89.5862 49.1846 90.4606 49.584C90.7495 49.6971 90.9852 49.9307 91.1601 50.2172C91.335 50.5036 91.449 50.8503 91.449 51.1442C91.449 52.124 90.6887 52.938 89.7003 52.938Z" fill="#231F20"/>
<path d="M111.703 50.1658C111.878 50.3995 111.939 50.7462 111.939 51.0929C111.939 52.0199 111.179 52.8264 110.244 52.8264H110.129C108.32 52.7661 106.449 52.7133 104.64 52.7133C102.83 52.7133 100.96 52.7736 99.097 52.8264H99.0362C98.0401 52.8264 97.2266 52.0124 97.2266 51.0929C97.2266 50.8592 97.2874 50.5728 97.4014 50.3392C97.5763 49.9322 97.9261 49.6458 98.2758 49.4724C99.1502 49.1257 99.7357 48.259 99.7357 47.2716V26.7861C99.7357 25.5727 99.097 24.932 98.2758 24.5326C97.9261 24.4195 97.6904 24.1859 97.5155 23.8995C97.3406 23.6131 97.2266 23.3191 97.2266 22.9724C97.2266 21.9926 98.1009 21.1786 99.097 21.1786H99.5076C101.842 21.1786 104.412 20.3119 106.685 18.9251C106.974 18.7517 107.324 18.6387 107.674 18.6387C108.609 18.6387 109.483 19.3924 109.483 20.4325V47.2792C109.483 48.2665 110.069 49.1333 110.943 49.48C111.232 49.6533 111.528 49.887 111.703 50.1734V50.1658ZM150.579 35.7024C150.579 45.1914 146.61 52.947 134.232 52.947C132.658 52.947 130.499 52.1933 128.34 51.7335C127.754 51.6205 127.169 51.4999 126.652 51.4999C124.728 51.4999 123.093 52.2536 121.284 52.7736C121.048 52.8339 120.873 52.8867 120.645 52.8867C119.474 52.8867 118.425 51.9069 118.425 50.6331V9.20237C118.425 7.46887 117.079 5.96147 115.269 5.78812C114.22 5.72782 113.171 5.72782 112.236 5.72782C111.24 5.78812 110.487 6.59458 110.487 7.52162C110.487 7.63468 110.548 7.75527 110.548 7.86833C110.662 8.32808 110.723 8.79537 110.723 9.31542C110.723 12.6166 108.449 15.3299 104.594 15.3299C100.739 15.3299 98.5267 12.6091 98.5267 9.31542C98.5267 3.35368 103.841 2.54722 109.559 2.54722C111.954 2.54722 114.403 2.66028 116.562 2.66028H117.201C119.01 2.59998 120.645 2.42663 121.808 1.90658C123.032 1.49958 124.257 0.919235 125.427 0.225834C125.716 0.0524833 126.074 -0.0078125 126.363 -0.0078125C127.298 -0.0078125 128.172 0.685589 128.172 1.78599V19.5506C128.172 19.837 128.461 20.0707 128.758 20.0707C128.819 20.0707 128.933 20.0707 128.993 20.0104C130.278 19.317 132.377 18.503 135.061 18.503C146.968 18.503 150.587 26.2585 150.587 35.6873L150.579 35.7024ZM140.771 35.7024C140.771 28.0674 139.897 21.759 134.004 21.759C130.856 21.759 128.575 24.3065 128.165 26.967V45.0181C128.165 45.5984 128.34 46.1788 128.575 46.6385C129.45 48.3193 131.32 49.7061 134.004 49.7061C139.897 49.7061 140.771 43.3976 140.771 35.7024Z" fill="#231F20"/>
<path d="M178.53 28.0612C177.42 28.0612 176.371 27.7145 175.435 27.0211C174.85 26.6141 173.862 26.2674 173.215 26.2674C168.372 26.2674 167.087 31.189 167.087 33.2089V47.3257C167.087 48.3658 167.672 49.1798 168.547 49.5792C168.836 49.6923 169.132 49.9259 169.307 50.2123C169.482 50.4988 169.543 50.8455 169.543 51.1394C169.543 52.1192 168.782 52.9332 167.847 52.9332H167.733C165.924 52.8201 164.053 52.8201 162.251 52.8201C160.449 52.8201 158.571 52.8201 156.708 52.9332H156.647C155.651 52.9332 154.838 52.1192 154.838 51.1394C154.838 50.9057 154.899 50.6193 155.013 50.3857C155.188 50.039 155.537 49.7526 155.887 49.5792C156.762 49.1722 157.347 48.3055 157.347 47.3257V26.8402C157.347 25.6267 156.708 24.9861 155.887 24.6394C155.537 24.466 155.302 24.2927 155.127 24.0063C154.952 23.7199 154.838 23.3732 154.838 23.0265C154.838 22.0994 155.651 21.293 156.587 21.293H157.111C159.446 21.293 162.015 20.3659 164.289 18.9791C164.578 18.8058 164.935 18.6927 165.285 18.6927C166.22 18.6927 167.095 19.4464 167.095 20.5468V25.8152C167.095 26.0488 167.209 26.2222 167.383 26.2222C167.497 26.2222 167.619 26.1091 167.733 25.9885C169.132 24.1947 171.641 17.6602 177.83 17.6602C178.066 17.6602 178.302 17.7205 178.53 17.7205C181.625 17.8335 183.548 20.3207 183.548 22.9285C183.548 24.142 183.084 25.4157 182.149 26.403L181.86 26.6895C180.925 27.6165 179.762 28.0763 178.53 28.0763V28.0612Z" fill="#231F20"/>
<path d="M217.52 34.7751C217.52 36.2222 216.296 37.3753 214.836 37.3753H196.102C195.463 37.3753 194.877 37.9557 194.877 38.5888V38.7018C195.402 45.1836 197.972 49.2913 204.214 49.2913C208.069 49.2913 211.567 46.9774 212.973 43.0431C213.088 42.6964 213.323 42.41 213.559 42.1764C213.848 42.003 214.198 41.89 214.547 41.89C215.536 41.89 216.296 42.6964 216.296 43.5707C216.296 43.7441 216.235 43.9777 216.182 44.1511C214.433 49.0727 210.289 53.007 201.941 53.007C189.57 53.007 184.955 45.2515 184.955 35.7624C184.955 26.2734 189.16 18.5781 201.53 18.5781C210.115 18.5781 216.593 23.5525 217.528 34.142V34.7751H217.52ZM206.138 34.1344C206.838 34.1344 207.484 33.5541 207.484 32.8004V32.6873C207.02 26.6728 205.499 21.7512 201.295 21.7512C196.687 21.7512 195.106 26.5522 194.817 32.8607V32.9737C194.817 33.6069 195.402 34.1344 196.041 34.1344H206.138Z" fill="#231F20"/>
</g>
<defs>
<clipPath id="clip0_120_382">
<rect width="217" height="53" fill="white" transform="translate(0.519531)"/>
</clipPath>
</defs>
</svg>
